<?xml version="1.0" standalone="no"?>
<!DOCTYPE svg PUBLIC "-//W3C//DTD SVG 20010904//EN"
 "http://www.w3.org/TR/2001/REC-SVG-20010904/DTD/svg10.dtd">
<svg version="1.0" xmlns="http://www.w3.org/2000/svg"
 width="1024.000000pt" height="1024.000000pt" viewBox="0 0 1024.000000 1024.000000"
 preserveAspectRatio="xMidYMid meet">
<metadata>
Created by potrace 1.11, written by Peter Selinger 2001-2013
</metadata>
<g transform="translate(0.000000,1024.000000) scale(0.100000,-0.100000)"
fill="#000000" stroke="none">
<path d="M1430 7685 c0 -6 843 -1472 922 -1602 36 -60 58 -87 83 -99 19 -9 49
-33 67 -53 18 -20 197 -321 398 -669 271 -470 368 -631 380 -627 21 6 264
-418 256 -449 -6 -28 83 -181 107 -181 24 0 549 -911 544 -944 -3 -13 2 -39
10 -58 7 -19 13 -58 12 -87 -1 -29 0 -57 3 -62 76 -141 913 -1584 918 -1584 5
0 856 1467 918 1583 2 5 5 36 6 70 2 42 10 77 26 107 38 75 1631 2832 1662
2877 16 24 49 54 73 69 34 20 56 45 94 107 78 131 921 1596 921 1602 0 3 -427
5 -948 5 l-949 0 -19 -21 c-30 -33 -68 -49 -136 -56 -36 -3 -66 -12 -71 -19
-6 -11 -81 -14 -399 -14 -343 0 -389 2 -384 15 5 13 -10 15 -98 15 -80 0 -106
-3 -116 -15 -19 -22 -505 -23 -496 0 4 13 -106 15 -892 17 l-897 3 -40 24
c-22 12 -44 29 -48 37 -7 12 -155 14 -957 14 -523 0 -950 -2 -950 -5z m3530
-1977 c0 -948 -3 -2044 -7 -2435 l-6 -713 -131 0 -131 0 -202 355 -203 354 0
1746 0 1745 -908 0 -907 0 -198 329 c-108 181 -197 332 -197 335 0 3 650 6
1445 6 l1445 0 0 -1722z m3230 1716 c0 -3 -89 -154 -197 -335 l-198 -329 -907
0 -908 0 0 -525 0 -525 -340 0 -340 0 0 860 0 860 1445 0 c795 0 1445 -3 1445
-6z m-921 -1809 c2 -2 -70 -126 -160 -274 l-164 -271 -822 0 -823 0 0 278 0
277 982 -3 c541 -2 985 -5 987 -7z m-1289 -1490 l0 -856 -202 -354 -203 -355
-131 0 -131 0 -6 713 c-4 391 -7 936 -7 1210 l0 497 340 0 340 0 0 -855z"/>
</g>
</svg>
